<?xml version="1.0" encoding="UTF-8"?>
<svg width="800" height="400" viewBox="0 0 800 400" fill="none" xmlns="http://www.w3.org/2000/svg">
  <!-- Background -->
  <rect width="800" height="400" rx="8" fill="#1F2937"/>
  
  <!-- Compliance Items -->
  <g transform="translate(40, 40)">
    <!-- Item 1 -->
    <g transform="translate(0, 0)">
      <rect width="720" height="60" rx="4" fill="#374151"/>
      <circle cx="30" cy="30" r="12" fill="#059669"/>
      <path d="M24,30 L28,34 L36,26" stroke="white" stroke-width="2"/>
      <text x="60" y="35" font-family="system-ui" font-size="14" fill="white">Required Disclosures</text>
      <rect x="560" y="20" width="140" height="20" rx="10" fill="#059669"/>
      <text x="590" y="35" font-family="system-ui" font-size="12" fill="white">COMPLIANT</text>
    </g>
    
    <!-- Item 2 -->
    <g transform="translate(0, 80)">
      <rect width="720" height="60" rx="4" fill="#374151"/>
      <circle cx="30" cy="30" r="12" fill="#A855F7"/>
      <path d="M24,30 L36,30" stroke="white" stroke-width="2"/>
      <text x="60" y="35" font-family="system-ui" font-size="14" fill="white">Script Adherence</text>
      <rect x="560" y="20" width="140" height="20" rx="10" fill="#A855F7"/>
      <text x="590" y="35" font-family="system-ui" font-size="12" fill="white">IN PROGRESS</text>
    </g>
    
    <!-- Item 3 -->
    <g transform="translate(0, 160)">
      <rect width="720" height="60" rx="4" fill="#374151"/>
      <circle cx="30" cy="30" r="12" fill="#059669"/>
      <path d="M24,30 L28,34 L36,26" stroke="white" stroke-width="2"/>
      <text x="60" y="35" font-family="system-ui" font-size="14" fill="white">Data Protection Standards</text>
      <rect x="560" y="20" width="140" height="20" rx="10" fill="#059669"/>
      <text x="590" y="35" font-family="system-ui" font-size="12" fill="white">COMPLIANT</text>
    </g>
    
    <!-- Item 4 -->
    <g transform="translate(0, 240)">
      <rect width="720" height="60" rx="4" fill="#374151"/>
      <circle cx="30" cy="30" r="12" fill="#DC2626"/>
      <path d="M24,24 L36,36 M24,36 L36,24" stroke="white" stroke-width="2"/>
      <text x="60" y="35" font-family="system-ui" font-size="14" fill="white">Call Recording Consent</text>
      <rect x="560" y="20" width="140" height="20" rx="10" fill="#DC2626"/>
      <text x="585" y="35" font-family="system-ui" font-size="12" fill="white">ATTENTION</text>
    </g>
  </g>
</svg> 